<?xml version="1.0" standalone="no"?>
<!DOCTYPE svg PUBLIC "-//W3C//DTD SVG 20010904//EN"
 "http://www.w3.org/TR/2001/REC-SVG-20010904/DTD/svg10.dtd">
<svg version="1.0" xmlns="http://www.w3.org/2000/svg"
 width="1024.000000pt" height="1024.000000pt" viewBox="0 0 1024.000000 1024.000000"
 preserveAspectRatio="xMidYMid meet">

<g transform="translate(0.000000,1024.000000) scale(0.100000,-0.100000)"
fill="#000000" stroke="none">
<path d="M0 5120 l0 -5120 5120 0 5120 0 0 5120 0 5120 -5120 0 -5120 0 0
-5120z m5655 2720 c266 -68 466 -321 491 -620 l7 -80 46 0 c94 0 228 -90 321
-215 134 -181 208 -403 217 -655 7 -185 -10 -282 -66 -394 l-40 -79 46 -64
c102 -143 138 -288 130 -517 -10 -265 -87 -511 -229 -726 -69 -106 -200 -229
-293 -277 -120 -61 -197 -73 -326 -51 -12 2 -33 -29 -77 -117 -157 -312 -391
-525 -632 -576 -83 -17 -195 -7 -262 23 l-56 26 -13 -29 c-15 -37 1 -213 32
-359 43 -197 145 -461 250 -642 28 -48 47 -92 44 -98 -4 -6 -128 -10 -344 -10
l-338 0 -36 78 c-65 143 -123 360 -147 552 -12 104 -13 323 0 409 8 58 6 75
-18 153 -15 48 -31 88 -37 88 -22 0 -142 64 -184 97 -133 109 -233 329 -262
574 -13 117 -7 304 15 414 8 39 11 73 8 76 -4 3 -25 11 -48 17 -59 17 -141 79
-197 147 -61 76 -170 296 -199 400 -18 66 -22 108 -22 240 -1 145 2 169 27
260 31 112 109 283 152 333 15 18 60 55 100 82 l73 49 -11 48 c-6 26 -10 134
-11 238 0 159 4 205 22 282 65 282 220 504 460 661 253 165 513 186 699 58
l48 -33 35 44 c69 87 192 165 310 197 81 22 221 20 315 -4z"/>
<path d="M5368 7729 c-117 -27 -248 -134 -323 -261 -22 -37 -43 -68 -47 -68
-3 0 -18 20 -32 44 -72 124 -211 182 -371 156 -250 -40 -529 -265 -639 -514
-59 -133 -96 -309 -96 -456 0 -71 23 -271 35 -309 4 -13 -12 -28 -66 -62 -114
-70 -160 -118 -206 -211 -149 -303 -149 -571 2 -873 87 -176 181 -265 305
-291 30 -6 54 -15 53 -20 0 -5 -13 -62 -27 -127 -104 -465 49 -941 335 -1042
41 -15 41 -15 36 8 -39 154 -41 196 -43 702 0 413 -3 519 -17 609 -16 103 -16
126 2 126 10 0 54 -164 76 -280 8 -47 25 -179 36 -295 28 -293 46 -398 97
-570 11 -35 10 -36 48 90 15 50 60 182 101 295 l75 205 -2 365 c-1 489 -17
651 -85 851 -20 56 -22 75 -13 81 15 8 38 -32 89 -152 43 -103 73 -210 104
-375 32 -173 54 -285 62 -305 3 -10 10 -1 20 25 36 102 118 384 149 514 l33
144 -25 101 c-70 281 -134 456 -226 615 -26 46 -48 87 -48 92 0 28 25 9 77
-59 76 -97 117 -161 197 -307 72 -132 76 -132 76 18 0 248 -79 596 -181 799
-22 43 -27 64 -20 71 8 8 15 5 26 -9 29 -37 164 -320 194 -408 61 -174 110
-412 111 -531 l0 -50 20 25 c36 45 178 343 217 452 44 124 70 146 58 51 -27
-227 -119 -511 -250 -773 -40 -80 -44 -96 -59 -230 -17 -148 -46 -331 -72
-453 -8 -38 -14 -73 -14 -79 0 -6 37 29 82 78 46 49 150 159 233 244 160 165
217 236 297 367 32 52 55 80 64 76 17 -6 -4 -62 -88 -231 -74 -150 -193 -332
-363 -557 -70 -93 -173 -232 -227 -308 l-99 -138 -29 -142 c-33 -163 -73 -430
-68 -451 2 -8 47 41 103 112 55 69 201 229 325 356 238 244 306 320 409 455
44 57 66 80 74 72 18 -18 -140 -262 -404 -626 -166 -229 -263 -372 -338 -499
-79 -134 -173 -328 -164 -336 4 -4 31 -16 58 -26 73 -28 200 -26 287 4 234 81
474 355 588 672 13 36 24 66 25 67 1 2 27 -6 58 -17 66 -23 103 -25 172 -6
257 68 475 370 562 776 25 117 24 358 -1 450 -33 122 -82 208 -164 289 -42 41
-71 76 -64 79 6 2 29 16 51 32 79 57 115 172 115 365 0 186 -36 342 -118 505
-122 242 -275 348 -426 295 -23 -8 -46 -15 -50 -15 -5 0 -6 33 -3 74 28 367
-219 669 -544 665 -48 -1 -105 -5 -125 -10z m-396 -1834 c0 -5 -5 -11 -11 -13
-6 -2 -11 4 -11 13 0 9 5 15 11 13 6 -2 11 -8 11 -13z"/>
</g>
</svg>
